<svg width="46" height="46" viewBox="0 0 46 46" fill="none" xmlns="http://www.w3.org/2000/svg">
<path d="M23 45C35.1503 45 45 35.1503 45 23C45 10.8497 35.1503 1 23 1C10.8497 1 1 10.8497 1 23C1 35.1503 10.8497 45 23 45Z" stroke="white" stroke-width="2"/>
<mask id="mask0_201_31" style="mask-type:luminance" maskUnits="userSpaceOnUse" x="0" y="0" width="46" height="46">
<path d="M23 45C35.1503 45 45 35.1503 45 23C45 10.8497 35.1503 1 23 1C10.8497 1 1 10.8497 1 23C1 35.1503 10.8497 45 23 45Z" stroke="white" stroke-width="2"/>
</mask>
<g mask="url(#mask0_201_31)">
</g>
<path d="M31.886 14.675C30.2136 13.8925 28.4253 13.3238 26.5557 13C26.3261 13.4151 26.0579 13.9735 25.8729 14.4176C23.8855 14.1187 21.9164 14.1187 19.9655 14.4176C19.7806 13.9735 19.5063 13.4151 19.2746 13C17.403 13.3238 15.6127 13.8946 13.9403 14.6791C10.5669 19.7767 9.65249 24.7476 10.1097 29.648C12.3471 31.3188 14.5154 32.3338 16.6471 32.9979C17.1734 32.2736 17.6428 31.5035 18.0472 30.692C17.277 30.3994 16.5394 30.0382 15.8424 29.6189C16.0273 29.482 16.2082 29.3387 16.3829 29.1914C20.6341 31.1798 25.2531 31.1798 29.4536 29.1914C29.6304 29.3387 29.8112 29.482 29.9941 29.6189C29.295 30.0403 28.5554 30.4014 27.7852 30.6941C28.1896 31.5035 28.657 32.2757 29.1853 33C31.3191 32.3358 33.4894 31.3209 35.7267 29.648C36.2632 23.9672 34.8103 19.0419 31.886 14.675ZM18.6264 26.6343C17.3502 26.6343 16.3036 25.4429 16.3036 23.9921C16.3036 22.5413 17.3278 21.3479 18.6264 21.3479C19.9249 21.3479 20.9714 22.5392 20.9491 23.9921C20.9511 25.4429 19.9249 26.6343 18.6264 26.6343ZM27.2101 26.6343C25.9339 26.6343 24.8874 25.4429 24.8874 23.9921C24.8874 22.5413 25.9115 21.3479 27.2101 21.3479C28.5086 21.3479 29.5552 22.5392 29.5328 23.9921C29.5328 25.4429 28.5086 26.6343 27.2101 26.6343Z" fill="white"/>
</svg>
