<svg width="46" height="46" viewBox="0 0 46 46" fill="none" xmlns="http://www.w3.org/2000/svg">
<path d="M23 45C35.1503 45 45 35.1503 45 23C45 10.8497 35.1503 1 23 1C10.8497 1 1 10.8497 1 23C1 35.1503 10.8497 45 23 45Z" stroke="white" stroke-width="2"/>
<mask id="mask0_105_35" style="mask-type:luminance" maskUnits="userSpaceOnUse" x="0" y="0" width="46" height="46">
<path d="M23 45C35.1503 45 45 35.1503 45 23C45 10.8497 35.1503 1 23 1C10.8497 1 1 10.8497 1 23C1 35.1503 10.8497 45 23 45Z" stroke="white" stroke-width="2"/>
</mask>
<g mask="url(#mask0_105_35)">
</g>
<path d="M30.0528 33.0502C30.5074 33.0502 30.9261 32.8035 31.1464 32.4058C31.3666 32.0081 31.3535 31.5222 31.1123 31.1369L25.6817 22.463V14C25.6817 13.3096 25.122 12.75 24.4317 12.75H21.6992C21.0088 12.75 20.4492 13.3096 20.4492 14V22.4588L14.9447 31.1303C14.7003 31.5153 14.6849 32.0028 14.9046 32.4024C15.1242 32.802 15.544 33.0502 16 33.0502H30.0528Z" stroke="white" stroke-width="2.5" stroke-miterlimit="2.3662" stroke-linejoin="round"/>
<line x1="19.4458" y1="12.75" x2="26.6071" y2="12.75" stroke="white" stroke-width="2.5" stroke-linecap="round"/>
<path d="M20.0682 26.7219C20.1601 26.5782 20.3197 26.494 20.486 26.5319C20.8783 26.6211 21.6899 26.9065 22.8701 27.8184C24.1171 28.782 25.611 28.3464 26.336 28.0354C26.586 27.9282 26.8904 28.0019 27.0365 28.2315L28.4706 30.4851C28.6825 30.818 28.4434 31.2536 28.0488 31.2536H18.084C17.689 31.2536 17.45 30.817 17.6628 30.4842L20.0682 26.7219Z" fill="white"/>
</svg>
